Patient4_TMGait_0pt4_03_right_03_EMG.mot
version=1
nRows=19
nColumns=33
inDegrees=no
endheader
time	1LAddLong	2LGlutMax	3LGlutMed	4LIliopsoas	5LSemiMemb	6LBicFemLong	7LRecFem	8LVastMed	9LVastLat	10LGasMed	11LTibAnt	12lTibPost	13LPeroneusLong	14LSol	15LExtDigLong	16LFlexDigLong	17RAddLong	18RGlutMax	19RGlutMed	20RIliopsoas	21RSemiMemb	22RBicFemLong	23RRecFem	24RVastMed	25RVastLat	26RGasMed	27RTibAnt	28RTibPost	29RPeroneusLong	30RSol	31RExtDigLong	32RFlexDigLong
4.225	0	-0.022278	0.15549	-0.002594	0.022736	-0.004883	0.058746	0.00412	0.074158	-0.021515	0.033722	0.001831	0.000153	-0.041351	0.002747	-0.002441	-0.002136	-0.13519	0.46493	0.021973	0.030823	-0.034332	-0.014038	-0.099945	0.00946	0.000458	-0.002594	-0.005035	-0.48141	-0.057526	-0.005493	0.016174
4.226	0.008545	-0.00946	0.21744	0.010529	0.010071	-0.011292	0.069885	0.00824	0.089111	-0.027313	0.08255	0.003815	-0.017548	-0.057831	0.28229	0.006409	-0.009003	-0.15366	0.079498	0.035553	-0.01236	-0.019684	0.016479	-0.059052	0.005646	0.001984	-0.074005	-0.013885	-0.2449	-0.018768	-0.001526	0.0177
4.227	0.003967	-0.025482	0.18478	0.00351	0.019226	-0.009308	0.090027	0.001831	0.057983	-0.033264	-0.015869	0.009003	-0.030823	0.003357	0.46738	0.018158	-0.014954	-0.19073	-0.2742	-0.032043	-0.09613	0.019226	-0.044861	-0.076447	0.01297	-0.003815	0.032959	-0.008698	0.075073	0.032043	-0.000458	0.003662
4.228	0.002899	-0.042572	0.15167	0.015106	0.024109	-0.024109	0.075836	0.003815	0.014343	-0.030823	-0.064392	0.00946	-0.019226	-0.006714	-0.0737	0.006409	-0.016174	-0.12512	-0.12741	-0.15274	-0.11383	0.04425	-0.009003	-0.059967	0.020142	-0.005035	0.12299	-0.007477	0.14099	0.026703	-0.002441	0.014343
4.229	-0.003052	-0.011444	0.10498	0.015259	0.011292	-0.011902	0.052032	0.001221	0.024261	-0.043945	-0.045471	0.003662	0.025177	-0.003052	-0.27924	0.005646	-0.023041	-0.112	-0.13138	-0.31845	-0.15961	0.041962	-0.06485	-0.061493	0.015564	-0.005188	0.29388	-0.012665	0.079956	0.029144	-0.001984	0.00473
4.23	0.00351	-0.048065	0.092773	0.021057	-0.011444	-0.016632	0.046692	0.007782	0.036163	-0.035095	-0.17334	0.015564	0.032959	0.002289	-0.44968	-0.011597	-0.012665	-0.15015	-0.13092	-0.22186	0.05661	0.032806	-0.015259	-0.10208	0.005188	-0.011902	0.45288	-0.006714	-0.098114	0.046082	-0.002136	0.007172
4.231	-0.002594	-0.036774	0.075531	0.02182	-0.003967	-0.005493	0.058136	0.000763	0.035858	-0.011902	-0.19409	-0.009613	-0.033112	-0.003815	-0.29633	0.004883	0.008087	-0.12894	-0.058136	-0.14343	0.056458	0.032806	-0.036011	-0.084991	0.022888	-0.005035	0.52307	-0.007935	-0.12146	-0.041809	-0.000305	-0.002899
4.232	0.000916	-0.025177	0.061035	0.011902	0.033417	-0.013885	0.027466	0.001526	0.034332	0.019073	-0.1059	-0.009003	-0.090942	-0.043335	-0.001526	0.000763	-0.001068	-0.14374	0.077057	0.081482	0.075989	0.034485	0.018158	-0.034027	0.012054	-0.007935	0.37399	-0.005798	-0.28686	-0.13702	-0.003052	0.002747
4.233	0.000153	-0.070343	0.12039	0.018921	0.007935	0.00061	0.034943	-0.000916	0.028839	0.000458	-0.007477	0.001831	-0.044861	-0.03479	0.089417	-0.005493	0.000305	-0.15503	0.12817	0.49591	0.00351	0.030518	-0.037842	-0.015411	0.002747	-0.008545	-0.18494	-0.005951	0.36529	-0.13428	-0.001068	-0.00061
4.234	0.008698	-0.081329	0.032196	0.008545	-0.042419	0.004272	0.026093	0.003967	0.029297	0.02655	0.030975	0.001373	-0.028534	0.021515	0.11871	0.00885	0.00473	-0.12009	-0.040588	0.51834	-0.018463	0.02182	-0.020752	-0.066986	-0.00061	-0.000916	-0.31891	-0.003204	0.57724	-0.10773	-0.003052	0.00885
4.235	0.003815	-0.084839	0.00061	0	-0.032043	-0.007477	0.069122	0.00885	0.060425	0.011597	0.061951	0.003052	-0.049133	0.021667	0.54901	0.010223	0.00061	-0.16846	-0.095367	0.24567	-0.02655	0.004578	-0.040131	-0.063019	-0.00061	-0.00824	-0.19836	-0.001373	0.45731	-0.040283	-0.001984	0.007172
4.236	0.003815	-0.028229	-0.096436	0.000916	0.083313	-0.048218	0.055847	-0.000153	0.044403	0.002594	0.022278	0.007629	-0.046997	0.018158	0.11688	-0.00412	0.012512	-0.12955	-0.079041	0.11566	-0.007324	0.0383	0.036011	-0.04364	0.002289	-0.00412	-0.13794	-0.006561	-0.19318	0.067444	-0.005493	0.007629
4.237	0.007935	-0.040436	0.081787	-0.010071	0.080109	-0.034332	0.052338	-0.003357	0.036316	-0.011292	-0.069275	-0.001373	-0.049744	-0.016632	-0.072174	0.013275	0.007935	-0.093384	-0.083313	0.015564	-0.016785	0.04364	0.016937	-0.053101	0.002136	-0.001831	-0.16861	-0.009918	-0.2388	0.12909	0.005035	0.002136
4.238	0.009308	-0.012665	0.1889	-0.003662	0.028381	0.019989	0.031128	-0.000153	0.028839	-0.025635	-0.12253	0.006714	-0.047607	-0.074615	-0.066833	-0.46387	0.002441	-0.11322	-0.047607	0.02533	-0.007782	0.048523	-0.002747	-0.09079	-0.002289	-0.001373	-0.41412	-0.006714	0.16953	0.081482	-0.000305	0.002441
4.239	0.008392	-0.048218	0.21668	0.017853	-0.006714	0.023804	0.020447	0.002899	0.039825	-0.052338	-0.074768	0.003204	-0.03006	-0.090942	-0.060425	0.15823	0.00473	-0.1181	-0.019531	0.13763	-0.010071	0.036163	0.002136	-0.063629	0.001526	-0.00061	-0.4541	-0.012665	0.11154	0.066376	-0.004883	0.001373
4.24	0.002594	-0.033569	0.046387	0.014191	-0.018768	0.010071	0.041962	0.002441	0.035858	-0.089722	0.047607	0.005035	-0.049286	-0.050507	0.018616	0.035706	0.005798	-0.11017	-0.042267	0.11002	-0.03891	0.024414	-0.04303	-0.033722	-0.004425	-0.002441	-0.22049	-0.008087	0.19333	0.011749	-0.006866	0.001831
4.241	0.002747	-0.018158	-0.018616	-0.005493	-0.001526	0.005646	0.032501	-0.001373	0.036469	-0.067596	-0.018005	0.003204	-0.028687	-0.085907	0.010376	0.057526	0.01297	-0.1004	-0.003662	0.00885	-0.054321	0.022278	-0.056	-0.026855	0.014343	-0.006256	0.041809	-0.002441	0.38849	0.005493	-0.002441	0.00351
4.242	0.003967	0.00885	0.078583	-0.018311	0.006714	0.010529	0.036926	0.005646	0.029297	-0.041809	-0.078278	0.003815	-0.015869	-0.058746	0.037537	0.16068	0.004883	-0.083008	-0.040436	-0.06958	-0.041809	0.023804	-0.043488	-0.020599	0.018921	-0.003815	0.091248	0.003815	0.35217	0.003052	-0.001373	0.005188
4.243	-0.005493	-0.003052	0.19806	0.011749	0.041351	0	0.040588	-0.003052	0.028229	-0.022583	-0.010071	0.006104	-0.040283	-0.10178	0.098114	0.028076	0.009613	-0.059357	-0.029755	-0.074615	-0.021973	0.027771	-0.11459	-0.043182	0.009613	-0.008698	0.093689	-0.006866	-0.24567	0.006714	-0.006561	0.007172
